# xmcd CD database file
#
# Track frame offsets:
#	150
#	8555
#	27295
#	40919
#	51685
#	62666
#	76055
#	90459
#	106606
#	116355
#	135859
#	163946
#
# Disc length: 2217 seconds
#
# Revision: 0
# Processed by: cddbd v1.5.2PL0 Copyright (c) Steve Scherf et al.
# Submitted via: CDex 1.70beta2
#
DISCID=8708a70c
DTITLE=Arbee Stidham - Arbee's Blues
DYEAR=1961
DGENRE=Blues
TTITLE0=Good Morning Blues
TTITLE1=Falling Blues
TTITLE2=Blue and Low
TTITLE3=Misery Blues
TTITLE4=My Baby Left Me
TTITLE5=In the Evening
TTITLE6=Walking Blues
TTITLE7=I've Got To Forget You
TTITLE8=Standing on the Corner
TTITLE9=Careless Love
TTITLE10=Tell Me, Mama
TTITLE11=cover.pdf
EXTD=YEAR: 1961
EXTT0=
EXTT1=
EXTT2=
EXTT3=
EXTT4=
EXTT5=
EXTT6=
EXTT7=
EXTT8=
EXTT9=
EXTT10=
EXTT11=
PLAYORDER=
